<?xml version="1.0" standalone="no"?>
<!DOCTYPE svg PUBLIC "-//W3C//DTD SVG 20010904//EN"
 "http://www.w3.org/TR/2001/REC-SVG-20010904/DTD/svg10.dtd">
<svg version="1.0" xmlns="http://www.w3.org/2000/svg"
 width="700.000000pt" height="700.000000pt" viewBox="0 0 700.000000 700.000000"
 preserveAspectRatio="xMidYMid meet">
<metadata>
Created by potrace 1.14, written by Peter Selinger 2001-2017
</metadata>
<g transform="translate(0.000000,700.000000) scale(0.100000,-0.100000)"
fill="#000000" stroke="none">
<path d="M3662 6853 c-7 -27 -14 -57 -17 -68 -2 -11 -70 -283 -150 -605 -81
-322 -148 -592 -150 -600 -2 -8 -57 -231 -123 -495 l-121 -480 -358 -1077
c-197 -593 -361 -1078 -365 -1078 -4 0 -37 30 -74 66 l-65 66 -276 826 c-151
455 -276 828 -277 829 -1 1 -239 -472 -529 -1052 l-528 -1055 -239 -957 c-132
-526 -237 -959 -234 -962 6 -7 6625 -8 6629 -1 3 4 -140 200 -235 321 -11 15
-65 87 -120 160 -55 74 -103 139 -108 144 -4 6 -95 127 -202 270 l-194 260
-409 410 -409 410 -294 590 c-244 490 -295 599 -300 645 -3 30 -8 66 -9 80 -2
14 -6 54 -10 90 -3 36 -8 72 -10 80 -2 8 -7 40 -10 70 -4 30 -8 66 -10 80 -2
14 -7 54 -10 90 -4 35 -8 72 -10 81 -2 9 -6 40 -10 70 -3 30 -8 65 -10 79 -3
14 -7 52 -10 85 -3 33 -8 71 -10 85 -2 14 -7 43 -9 65 -3 22 -8 59 -11 83 -3
23 -7 59 -10 80 -9 74 -14 118 -20 157 -8 65 -13 106 -20 170 -3 33 -8 74 -11
90 -7 37 -634 1927 -643 1938 -4 4 -13 -14 -19 -40z m172 -4276 c174 -348 326
-644 339 -659 12 -14 69 -85 126 -158 58 -73 109 -137 115 -144 6 -6 27 -31
46 -56 46 -59 53 -68 65 -83 10 -11 166 -207 186 -232 5 -7 -330 -10 -1002
-10 l-1010 0 6 25 c4 14 12 36 19 50 6 14 187 447 401 962 215 516 391 938
391 938 1 0 144 -285 318 -633z m-1915 -982 c155 -192 281 -352 281 -355 0 -3
-194 -5 -430 -5 -237 0 -430 3 -430 8 0 8 192 494 210 532 5 11 19 45 31 75
11 30 25 65 30 78 5 13 13 22 19 20 5 -2 135 -160 289 -353z"/>
</g>
</svg>
